<svg width="121" height="41" viewBox="0 0 121 41" fill="none" xmlns="http://www.w3.org/2000/svg">
<rect x="0.5" y="0.5" width="120" height="40" rx="6" fill="black"/>
<path d="M25.2045 21.263C25.2166 20.3431 25.4669 19.4411 25.9321 18.641C26.3972 17.8409 27.0621 17.1687 27.8648 16.6869C27.3548 15.9758 26.6821 15.3907 25.9 14.9779C25.1178 14.565 24.2479 14.336 23.3592 14.3088C21.4635 14.1146 19.6258 15.4163 18.6598 15.4163C17.6751 15.4163 16.1878 14.3281 14.5862 14.3603C13.5502 14.393 12.5406 14.6871 11.6557 15.214C10.7708 15.7408 10.0407 16.4825 9.53674 17.3668C7.35352 21.0571 8.98201 26.4808 11.0734 29.4639C12.1197 30.9246 13.3426 32.5562 14.9428 32.4984C16.5086 32.4349 17.0934 31.5235 18.9835 31.5235C20.8561 31.5235 21.4048 32.4984 23.0374 32.4616C24.7176 32.4349 25.7762 30.9944 26.7859 29.5198C27.5377 28.479 28.1162 27.3287 28.5 26.1115C27.5238 25.7084 26.6908 25.0337 26.1048 24.1715C25.5187 23.3093 25.2056 22.2977 25.2045 21.263Z" fill="white"/>
<path d="M22.121 12.3471C23.0372 11.2734 23.4885 9.89335 23.3792 8.5C21.9796 8.64352 20.6867 9.2966 19.7582 10.3291C19.3043 10.8335 18.9566 11.4203 18.735 12.056C18.5135 12.6917 18.4224 13.3638 18.4671 14.0338C19.1672 14.0408 19.8597 13.8927 20.4927 13.6005C21.1256 13.3084 21.6824 12.8798 22.121 12.3471Z" fill="white"/>
<path d="M37.291 9.00146H39.3608C41.1494 9.00146 42.0195 10.0649 42.0195 11.9941C42.0195 13.9233 41.1406 15 39.3608 15H37.291V9.00146ZM38.2886 9.84082V14.1606H39.251C40.4375 14.1606 40.9956 13.4443 40.9956 12.0073C40.9956 10.5615 40.4331 9.84082 39.251 9.84082H38.2886ZM45.1748 10.2759C46.3877 10.2759 47.2358 11.0625 47.2358 12.3677V12.9697C47.2358 14.3188 46.3877 15.0791 45.1748 15.0791C43.9443 15.0791 43.105 14.3276 43.105 12.9741V12.3721C43.105 11.1021 43.9575 10.2759 45.1748 10.2759ZM45.1792 11.0625C44.4849 11.0625 44.0894 11.6426 44.0894 12.4204V12.939C44.0894 13.7168 44.4585 14.2925 45.1792 14.2925C45.8911 14.2925 46.2559 13.7212 46.2559 12.939V12.4204C46.2559 11.6426 45.8735 11.0625 45.1792 11.0625ZM54.3989 10.355L53.1772 15H52.1841L51.2129 11.5723H51.1865L50.2329 15H49.2354L47.9609 10.355H49.0112L49.7583 13.897H49.8022L50.7383 10.355H51.6567L52.6191 13.897H52.6631L53.4233 10.355H54.3989ZM55.3657 15V10.355H56.3237V11.1899H56.3721C56.4907 10.8252 56.8291 10.2847 57.7695 10.2847C58.7056 10.2847 59.334 10.8032 59.334 11.8623V15H58.3584V12.1479C58.3584 11.4404 57.9893 11.1152 57.4399 11.1152C56.7192 11.1152 56.3413 11.6689 56.3413 12.4204V15H55.3657ZM60.8105 15V8.68506H61.7861V15H60.8105ZM65.1348 10.2759C66.3477 10.2759 67.1958 11.0625 67.1958 12.3677V12.9697C67.1958 14.3188 66.3477 15.0791 65.1348 15.0791C63.9043 15.0791 63.0649 14.3276 63.0649 12.9741V12.3721C63.0649 11.1021 63.9175 10.2759 65.1348 10.2759ZM65.1392 11.0625C64.4448 11.0625 64.0493 11.6426 64.0493 12.4204V12.939C64.0493 13.7168 64.4185 14.2925 65.1392 14.2925C65.8511 14.2925 66.2158 13.7212 66.2158 12.939V12.4204C66.2158 11.6426 65.8335 11.0625 65.1392 11.0625ZM69.7227 15.0703C68.8218 15.0703 68.2021 14.5166 68.2021 13.6509C68.2021 12.8291 68.7734 12.2754 69.8457 12.2754H71.019V11.8403C71.019 11.3086 70.6807 11.0581 70.1445 11.0581C69.6172 11.0581 69.3799 11.2778 69.3052 11.5854H68.3779C68.4351 10.8076 69.0195 10.2847 70.1753 10.2847C71.1685 10.2847 71.9902 10.6978 71.9902 11.8535V15H71.063V14.3979H71.019C70.8125 14.7539 70.4082 15.0703 69.7227 15.0703ZM70.0259 14.3145C70.5796 14.3145 71.019 13.9365 71.019 13.4312V12.9302H69.9995C69.4326 12.9302 69.1821 13.2158 69.1821 13.6025C69.1821 14.0859 69.5864 14.3145 70.0259 14.3145ZM74.9961 10.2935C75.6509 10.2935 76.1519 10.5835 76.332 11.0537H76.3804V8.68506H77.356V15H76.4067V14.2573H76.3584C76.2178 14.7275 75.6597 15.0615 74.9829 15.0615C73.915 15.0615 73.2207 14.3013 73.2207 13.0752V12.2798C73.2207 11.0537 73.9282 10.2935 74.9961 10.2935ZM75.2686 11.0933C74.6182 11.0933 74.2139 11.5767 74.2139 12.4204V12.9302C74.2139 13.7783 74.6226 14.2617 75.2905 14.2617C75.9497 14.2617 76.3804 13.7827 76.3804 12.9917V12.2886C76.3804 11.5723 75.9102 11.0933 75.2686 11.0933ZM82.7129 10.2759C83.9258 10.2759 84.7739 11.0625 84.7739 12.3677V12.9697C84.7739 14.3188 83.9258 15.0791 82.7129 15.0791C81.4824 15.0791 80.6431 14.3276 80.6431 12.9741V12.3721C80.6431 11.1021 81.4956 10.2759 82.7129 10.2759ZM82.7173 11.0625C82.0229 11.0625 81.6274 11.6426 81.6274 12.4204V12.939C81.6274 13.7168 81.9966 14.2925 82.7173 14.2925C83.4292 14.2925 83.7939 13.7212 83.7939 12.939V12.4204C83.7939 11.6426 83.4116 11.0625 82.7173 11.0625ZM86.0308 15V10.355H86.9888V11.1899H87.0371C87.1558 10.8252 87.4941 10.2847 88.4346 10.2847C89.3706 10.2847 89.999 10.8032 89.999 11.8623V15H89.0234V12.1479C89.0234 11.4404 88.6543 11.1152 88.105 11.1152C87.3843 11.1152 87.0063 11.6689 87.0063 12.4204V15H86.0308ZM93.7739 10.3857V9.22559H94.7275V10.3857H95.769V11.1504H94.7275V13.6157C94.7275 14.1211 94.9165 14.2617 95.4395 14.2617C95.5713 14.2617 95.7471 14.2529 95.8218 14.2441V14.9912C95.7427 15.0044 95.4175 15.0308 95.1978 15.0308C94.0684 15.0308 93.7607 14.6265 93.7607 13.6948V11.1504H93.0532V10.3857H93.7739ZM96.9995 15V8.68506H97.9707V11.1899H98.019C98.1201 10.8604 98.498 10.2847 99.4297 10.2847C100.335 10.2847 100.981 10.8076 100.981 11.8667V15H100.01V12.1523C100.01 11.4448 99.6187 11.1152 99.0649 11.1152C98.3662 11.1152 97.9707 11.6646 97.9707 12.4204V15H96.9995ZM104.255 15.0791C102.989 15.0791 102.203 14.3013 102.203 12.9917V12.3633C102.203 11.0449 103.064 10.2759 104.198 10.2759C105.362 10.2759 106.184 11.0845 106.184 12.3633V12.9082H103.169V13.1367C103.169 13.8047 103.565 14.2969 104.25 14.2969C104.76 14.2969 105.112 14.0552 105.178 13.7651H106.131C106.074 14.3013 105.507 15.0791 104.255 15.0791ZM103.169 12.271H105.23V12.2095C105.23 11.5107 104.822 11.0449 104.202 11.0449C103.583 11.0449 103.169 11.5107 103.169 12.2095V12.271Z" fill="white"/>
<path d="M38.7061 31H36.6758L40.8066 19.0029H43.0391L47.1611 31H45.0518L43.9883 27.6777H39.7783L38.7061 31ZM41.9316 21.0771H41.8525L40.2266 26.1484H43.54L41.9316 21.0771ZM52.7644 31.1318C51.5603 31.1318 50.6462 30.5605 50.154 29.708H50.0837V34.085H48.1325V21.71H50.031V23.0723H50.1013C50.6111 22.1846 51.5603 21.5869 52.8083 21.5869C54.8913 21.5869 56.3767 23.1602 56.3767 25.9375V26.7637C56.3767 29.5234 54.9089 31.1318 52.7644 31.1318ZM52.3161 29.5234C53.5554 29.5234 54.3991 28.5303 54.3991 26.6582V26.0078C54.3991 24.2061 53.6081 23.1777 52.281 23.1777C50.9187 23.1777 50.0661 24.2852 50.0661 25.999V26.6582C50.0661 28.416 50.9275 29.5234 52.3161 29.5234ZM62.683 31.1318C61.4789 31.1318 60.5649 30.5605 60.0727 29.708H60.0024V34.085H58.0512V21.71H59.9496V23.0723H60.02C60.5297 22.1846 61.4789 21.5869 62.727 21.5869C64.81 21.5869 66.2954 23.1602 66.2954 25.9375V26.7637C66.2954 29.5234 64.8276 31.1318 62.683 31.1318ZM62.2348 29.5234C63.4741 29.5234 64.3178 28.5303 64.3178 26.6582V26.0078C64.3178 24.2061 63.5268 23.1777 62.1996 23.1777C60.8373 23.1777 59.9848 24.2852 59.9848 25.999V26.6582C59.9848 28.416 60.8461 29.5234 62.2348 29.5234ZM70.3387 27.6689H72.2899C72.3778 28.7061 73.2919 29.5938 74.9882 29.5938C76.5438 29.5938 77.4667 28.8643 77.4667 27.7305C77.4667 26.8164 76.8514 26.3242 75.5682 26.0166L73.5995 25.5244C72.0526 25.1641 70.6639 24.2412 70.6639 22.29C70.6639 19.9961 72.6679 18.7393 74.997 18.7393C77.3261 18.7393 79.2684 19.9961 79.3124 22.2373H77.3964C77.3085 21.2178 76.5262 20.374 74.9706 20.374C73.5995 20.374 72.6679 21.0244 72.6679 22.1406C72.6679 22.9229 73.2128 23.4854 74.329 23.7402L76.2889 24.2236C78.0907 24.6631 79.4618 25.5156 79.4618 27.5547C79.4618 29.9102 77.5546 31.2373 74.8387 31.2373C71.4989 31.2373 70.3827 29.2861 70.3387 27.6689ZM81.8395 21.71V19.4512H83.7555V21.71H85.566V23.2744H83.7555V28.2314C83.7555 29.2422 84.1334 29.5234 85.1793 29.5234C85.3463 29.5234 85.5045 29.5234 85.6188 29.5059V31C85.4605 31.0264 85.0914 31.0615 84.6959 31.0615C82.4371 31.0615 81.8131 30.2529 81.8131 28.3896V23.2744H80.5299V21.71H81.8395ZM90.8353 21.5518C93.5071 21.5518 94.9573 23.4326 94.9573 25.9639V26.7109C94.9573 29.3301 93.5159 31.1582 90.8353 31.1582C88.1546 31.1582 86.6956 29.3301 86.6956 26.7109V25.9639C86.6956 23.4414 88.1634 21.5518 90.8353 21.5518ZM90.8353 23.1162C89.3851 23.1162 88.6644 24.3027 88.6644 25.9902V26.7021C88.6644 28.3633 89.3763 29.585 90.8353 29.585C92.2943 29.585 92.9974 28.3721 92.9974 26.7021V25.9902C92.9974 24.2939 92.2855 23.1162 90.8353 23.1162ZM96.6055 31V21.71H98.5567V22.9316H98.627C98.8643 22.3516 99.5586 21.5781 100.851 21.5781C101.106 21.5781 101.325 21.5957 101.51 21.6309V23.3535C101.343 23.3096 101 23.2832 100.675 23.2832C99.1104 23.2832 98.583 24.25 98.583 25.498V31H96.6055ZM106.243 31.1582C103.756 31.1582 102.174 29.5146 102.174 26.7637V25.8232C102.174 23.2305 103.72 21.5518 106.164 21.5518C108.642 21.5518 110.136 23.292 110.136 25.9111V26.7988H104.098V27.0186C104.098 28.583 104.942 29.6201 106.269 29.6201C107.262 29.6201 107.939 29.1279 108.177 28.3281H110.031C109.75 29.8311 108.537 31.1582 106.243 31.1582ZM104.098 25.4365H108.229V25.4189C108.229 24.1006 107.412 23.0635 106.173 23.0635C104.916 23.0635 104.098 24.1006 104.098 25.4189V25.4365Z" fill="white"/>
</svg>
