<svg width="1440" height="582" viewBox="0 0 1440 582" fill="none" xmlns="http://www.w3.org/2000/svg">
<g clip-path="url(#clip0_860_1452)">
<rect width="1440" height="582" fill="#131313"/>
<g filter="url(#filter0_f_860_1452)">
<path d="M1402.53 -14.9914C1472.29 -20.7781 1529.39 -72.3416 1549.22 -97.3999C1662.25 -216.652 1624.33 124.651 1487.86 324.116C1351.38 523.581 1233.78 327.632 1093.16 168.713C952.54 9.7933 1315.33 -7.75792 1402.53 -14.9914Z" fill="url(#paint0_linear_860_1452)" fill-opacity="0.5"/>
</g>
<g filter="url(#filter1_f_860_1452)">
<path d="M-114.598 51.7701C-114.598 -18.2299 -161.265 -79.3966 -184.598 -101.23C-294.098 -223.73 42.9016 -157.73 230.402 -5.22989C417.902 147.27 212.902 248.27 42.9016 375.27C-127.098 502.27 -114.598 139.27 -114.598 51.7701Z" fill="url(#paint1_linear_860_1452)" fill-opacity="0.5"/>
</g>
</g>
<defs>
<filter id="filter0_f_860_1452" x="861.133" y="-322.067" width="954.625" height="930.619" filterUnits="userSpaceOnUse" color-interpolation-filters="sRGB">
<feFlood flood-opacity="0" result="BackgroundImageFix"/>
<feBlend mode="normal" in="SourceGraphic" in2="BackgroundImageFix" result="shape"/>
<feGaussianBlur stdDeviation="100" result="effect1_foregroundBlur_860_1452"/>
</filter>
<filter id="filter1_f_860_1452" x="-406" y="-365" width="910.975" height="966.944" filterUnits="userSpaceOnUse" color-interpolation-filters="sRGB">
<feFlood flood-opacity="0" result="BackgroundImageFix"/>
<feBlend mode="normal" in="SourceGraphic" in2="BackgroundImageFix" result="shape"/>
<feGaussianBlur stdDeviation="100" result="effect1_foregroundBlur_860_1452"/>
</filter>
<linearGradient id="paint0_linear_860_1452" x1="1607.09" y1="-167.924" x2="1148.91" y2="308.583" gradientUnits="userSpaceOnUse">
<stop stop-color="#575EFF"/>
<stop offset="1" stop-color="#6528F7"/>
</linearGradient>
<linearGradient id="paint1_linear_860_1452" x1="-250.098" y1="-164.729" x2="186.902" y2="331.271" gradientUnits="userSpaceOnUse">
<stop stop-color="#8D5EFF"/>
<stop offset="1" stop-color="#6528F7"/>
</linearGradient>
<clipPath id="clip0_860_1452">
<rect width="1440" height="582" fill="white"/>
</clipPath>
</defs>
</svg>
