<svg width="121" height="41" viewBox="0 0 121 41" fill="none" xmlns="http://www.w3.org/2000/svg">
<rect x="0.5" y="0.5" width="120" height="40" rx="6" fill="black"/>
<path d="M18.3051 19.9617L8.58984 30.5059C8.59076 30.5078 8.59076 30.5106 8.59167 30.5125C8.89005 31.6574 9.91203 32.5 11.1256 32.5C11.6111 32.5 12.0664 32.3656 12.457 32.1305L12.488 32.1118L23.4232 25.6593L18.3051 19.9617Z" fill="#EA4335"/>
<path d="M28.1332 18.1662L28.124 18.1597L23.4029 15.3612L18.084 20.2013L23.422 25.6582L28.1177 22.8878C28.9407 22.4324 29.5001 21.545 29.5001 20.5223C29.5001 19.5052 28.9489 18.6225 28.1332 18.1662Z" fill="#FBBC04"/>
<path d="M8.58942 10.4932C8.53102 10.7135 8.5 10.9449 8.5 11.1838V29.8163C8.5 30.0552 8.53102 30.2866 8.59034 30.5059L18.6386 20.2313L8.58942 10.4932Z" fill="#4285F4"/>
<path d="M18.3762 20.5L23.404 15.3594L12.4815 8.8836C12.0846 8.64005 11.6211 8.50009 11.1256 8.50009C9.91197 8.50009 8.88816 9.34456 8.58978 10.4904C8.58978 10.4914 8.58887 10.4923 8.58887 10.4932L18.3762 20.5Z" fill="#34A853"/>
<path d="M44.11 12.21C44.11 13.21 43.8133 14.0067 43.22 14.6C42.5533 15.3067 41.6767 15.66 40.59 15.66C39.55 15.66 38.67 15.3 37.95 14.58C37.23 13.86 36.87 12.9733 36.87 11.92C36.87 10.8667 37.23 9.98 37.95 9.26C38.67 8.54 39.55 8.18 40.59 8.18C41.1167 8.18 41.6133 8.27333 42.08 8.46C42.5467 8.64667 42.93 8.91 43.23 9.25L42.57 9.91C42.35 9.64333 42.0633 9.43667 41.71 9.29C41.3633 9.13667 40.99 9.06 40.59 9.06C39.81 9.06 39.15 9.33 38.61 9.87C38.0767 10.4167 37.81 11.1 37.81 11.92C37.81 12.74 38.0767 13.4233 38.61 13.97C39.15 14.51 39.81 14.78 40.59 14.78C41.3033 14.78 41.8967 14.58 42.37 14.18C42.8433 13.78 43.1167 13.23 43.19 12.53H40.59V11.67H44.06C44.0933 11.8567 44.11 12.0367 44.11 12.21ZM49.4078 8.34V9.22H46.1478V11.49H49.0878V12.35H46.1478V14.62H49.4078V15.5H45.2278V8.34H49.4078ZM53.0877 9.22V15.5H52.1677V9.22H50.1677V8.34H55.0877V9.22H53.0877ZM59.1654 15.5H58.2454V8.34H59.1654V15.5ZM63.0487 9.22V15.5H62.1287V9.22H60.1287V8.34H65.0487V9.22H63.0487ZM75.021 11.92C75.021 12.98 74.6677 13.8667 73.961 14.58C73.2477 15.3 72.3743 15.66 71.341 15.66C70.301 15.66 69.4277 15.3 68.721 14.58C68.0143 13.8667 67.661 12.98 67.661 11.92C67.661 10.86 68.0143 9.97333 68.721 9.26C69.4277 8.54 70.301 8.18 71.341 8.18C72.381 8.18 73.2543 8.54333 73.961 9.27C74.6677 9.98333 75.021 10.8667 75.021 11.92ZM68.601 11.92C68.601 12.7467 68.861 13.43 69.381 13.97C69.9077 14.51 70.561 14.78 71.341 14.78C72.121 14.78 72.771 14.51 73.291 13.97C73.8177 13.4367 74.081 12.7533 74.081 11.92C74.081 11.0867 73.8177 10.4033 73.291 9.87C72.771 9.33 72.121 9.06 71.341 9.06C70.561 9.06 69.9077 9.33 69.381 9.87C68.861 10.41 68.601 11.0933 68.601 11.92ZM77.0267 15.5H76.1067V8.34H77.2267L80.7067 13.91H80.7467L80.7067 12.53V8.34H81.6267V15.5H80.6667L77.0267 9.66H76.9867L77.0267 11.04V15.5Z" fill="white"/>
<path d="M94.0181 31.9097H95.6469V20.8981H94.0181V31.9097ZM108.689 24.8646L106.822 29.6388H106.766L104.828 24.8646H103.073L105.979 31.5371L104.323 35.249H106.021L110.5 24.8646H108.689ZM99.4519 30.6588C98.9176 30.6588 98.1739 30.3902 98.1739 29.7234C98.1739 28.8742 99.1001 28.5483 99.9005 28.5483C100.616 28.5483 100.954 28.7042 101.389 28.9165C101.262 29.9365 100.392 30.6588 99.4519 30.6588ZM99.6483 24.6241C98.469 24.6241 97.2469 25.1482 96.7424 26.3101L98.1879 26.9188C98.4969 26.3101 99.0721 26.111 99.6762 26.111C100.519 26.111 101.375 26.621 101.389 27.5283V27.6411C101.094 27.471 100.463 27.2165 99.6902 27.2165C98.132 27.2165 96.5451 28.0806 96.5451 29.6952C96.5451 31.1689 97.823 32.1184 99.2546 32.1184C100.35 32.1184 100.954 31.6225 101.333 31.0411H101.389V31.8912H102.961V27.6692C102.961 25.7146 101.515 24.6241 99.6483 24.6241ZM89.5821 26.2053H87.2655V22.4308H89.5821C90.7998 22.4308 91.4911 23.4482 91.4911 24.3176C91.4911 25.1711 90.7998 26.2053 89.5821 26.2053ZM89.5402 20.8981H85.6375V31.9097H87.2655V27.7379H89.5402C91.3453 27.7379 93.1199 26.4184 93.1199 24.3176C93.1199 22.2168 91.3453 20.8981 89.5402 20.8981ZM68.2583 30.6606C67.1332 30.6606 66.1913 29.7102 66.1913 28.4047C66.1913 27.0852 67.1332 26.1198 68.2583 26.1198C69.3695 26.1198 70.2406 27.0852 70.2406 28.4047C70.2406 29.7102 69.3695 30.6606 68.2583 30.6606ZM70.1289 25.4812H70.0722C69.7064 25.0417 69.0038 24.6444 68.1178 24.6444C66.2611 24.6444 64.5599 26.2898 64.5599 28.4047C64.5599 30.5047 66.2611 32.1369 68.1178 32.1369C69.0038 32.1369 69.7064 31.7396 70.0722 31.2851H70.1289V31.8251C70.1289 33.2582 69.3695 34.0246 68.1457 34.0246C67.1471 34.0246 66.5282 33.3005 66.2751 32.6901L64.8549 33.2864C65.2626 34.28 66.3458 35.5 68.1457 35.5C70.0582 35.5 71.6757 34.3646 71.6757 31.5978V24.8708H70.1289V25.4812ZM72.8008 31.9097H74.4323V20.8973H72.8008V31.9097ZM76.8362 28.277C76.7943 26.8298 77.9474 26.0916 78.7766 26.0916C79.4243 26.0916 79.9725 26.4176 80.1549 26.8862L76.8362 28.277ZM81.8989 27.028C81.5899 26.1912 80.6472 24.6444 78.7208 24.6444C76.8083 24.6444 75.2196 26.1621 75.2196 28.3907C75.2196 30.4906 76.7943 32.1369 78.9032 32.1369C80.6053 32.1369 81.5899 31.0869 81.9976 30.4765L80.7319 29.6247C80.3103 30.2493 79.7333 30.6606 78.9032 30.6606C78.0739 30.6606 77.483 30.2774 77.1033 29.5261L82.0674 27.4534L81.8989 27.028ZM42.3501 25.7939V27.383H46.1184C46.0058 28.277 45.7107 28.9297 45.2612 29.3834C44.7121 29.9374 43.8541 30.5479 42.3501 30.5479C40.0291 30.5479 38.2152 28.6602 38.2152 26.3189C38.2152 23.9767 40.0291 22.0899 42.3501 22.0899C43.6018 22.0899 44.5157 22.5867 45.1905 23.2254L46.3017 22.104C45.3589 21.1959 44.1081 20.5 42.3501 20.5C39.1719 20.5 36.5 23.1117 36.5 26.3189C36.5 29.5261 39.1719 32.1369 42.3501 32.1369C44.0653 32.1369 45.3589 31.5688 46.3715 30.5047C47.4129 29.4547 47.7358 27.9793 47.7358 26.7866C47.7358 26.4176 47.7079 26.0775 47.6512 25.7939H42.3501ZM52.0208 30.6606C50.8957 30.6606 49.925 29.7243 49.925 28.3907C49.925 27.0421 50.8957 26.1198 52.0208 26.1198C53.1451 26.1198 54.1158 27.0421 54.1158 28.3907C54.1158 29.7243 53.1451 30.6606 52.0208 30.6606ZM52.0208 24.6444C49.9669 24.6444 48.2936 26.2194 48.2936 28.3907C48.2936 30.5479 49.9669 32.1369 52.0208 32.1369C54.0739 32.1369 55.7472 30.5479 55.7472 28.3907C55.7472 26.2194 54.0739 24.6444 52.0208 24.6444ZM60.15 30.6606C59.0249 30.6606 58.0542 29.7243 58.0542 28.3907C58.0542 27.0421 59.0249 26.1198 60.15 26.1198C61.2752 26.1198 62.245 27.0421 62.245 28.3907C62.245 29.7243 61.2752 30.6606 60.15 30.6606ZM60.15 24.6444C58.097 24.6444 56.4237 26.2194 56.4237 28.3907C56.4237 30.5479 58.097 32.1369 60.15 32.1369C62.2031 32.1369 63.8764 30.5479 63.8764 28.3907C63.8764 26.2194 62.2031 24.6444 60.15 24.6444Z" fill="white"/>
</svg>
