<svg width="512" height="512" viewBox="0 0 512 512" fill="none" xmlns="http://www.w3.org/2000/svg">
<g clip-path="url(#clip0_869_924)">
<path d="M256.358 256L256.092 256.353L256 256.266L256.358 256Z" fill="black"/>
<path d="M256.44 256.266L256.266 256.353L256 256L256.44 256.266Z" fill="black"/>
<path d="M512 0H0V512H512V0Z" fill="#6528F7"/>
<path d="M253.268 162.659C217.796 162.926 187.79 173.113 175.502 187.321C171.658 191.767 169.545 196.607 169.545 201.658C169.545 222.85 206.693 240.31 253.268 240.657C300.69 241.014 339.771 223.555 339.771 201.658C339.771 179.762 300.69 162.307 253.268 162.659ZM254.596 209.759C244.85 209.742 236.973 206.117 236.973 201.654C236.973 197.191 244.846 193.566 254.596 193.549C264.38 193.532 272.338 197.161 272.338 201.654C272.338 206.147 264.38 209.772 254.596 209.759Z" fill="white"/>
<path d="M255.934 348.996C256.922 349.009 257.91 348.76 258.794 348.253L411.99 260.711C413.747 259.71 414.829 257.842 414.829 255.819V205.262C414.829 200.937 410.156 198.227 406.403 200.37L258.794 284.716C257.905 285.223 256.918 285.472 255.93 285.459" fill="#EDEDED"/>
<path d="M255.926 285.463C254.985 285.451 254.049 285.206 253.203 284.72L105.595 200.374C101.841 198.227 97.168 200.941 97.168 205.266V255.823C97.168 257.846 98.2503 259.71 100.007 260.715L253.203 348.257C254.049 348.742 254.99 348.987 255.93 349" fill="white"/>
</g>
<defs>
<clipPath id="clip0_869_924">
<rect width="512" height="512" fill="white"/>
</clipPath>
</defs>
</svg>
