<svg width="40" height="25" viewBox="0 0 40 25" fill="none" xmlns="http://www.w3.org/2000/svg">
<path d="M19.6557 0.768238C15.189 0.801769 11.4107 2.08462 9.86342 3.87369C9.37937 4.43346 9.11328 5.04297 9.11328 5.67899C9.11328 8.34746 13.7909 10.5459 19.6557 10.5897C25.6271 10.6346 30.5481 8.43615 30.5481 5.67899C30.5481 2.92183 25.6271 0.723889 19.6557 0.768238ZM19.8228 6.699C18.5957 6.69684 17.6038 6.24037 17.6038 5.67845C17.6038 5.11653 18.5952 4.66006 19.8228 4.6579C21.0549 4.65574 22.057 5.11274 22.057 5.67845C22.057 6.24416 21.0549 6.70062 19.8228 6.699Z" fill="white"/>
<path d="M19.9918 24.2317C20.1161 24.2333 20.2405 24.2019 20.3519 24.1381L39.6423 13.1149C39.8635 12.9888 39.9998 12.7536 39.9998 12.4988V6.13271C39.9998 5.5881 39.4114 5.24683 38.9387 5.51671L20.3519 16.1376C20.24 16.2014 20.1156 16.2327 19.9912 16.2311" fill="#EDEDED"/>
<path d="M19.9908 16.2318C19.8723 16.2302 19.7544 16.1994 19.6479 16.1383L1.06111 5.51742C0.588426 5.247 0 5.58881 0 6.13343V12.4996C0 12.7543 0.13629 12.989 0.35749 13.1156L19.6479 24.1388C19.7544 24.1999 19.8729 24.2307 19.9913 24.2324" fill="white"/>
</svg>
